 http://www.shotpix.com/images/41184378375129481537.jpeg

why be the same as everyone else when YOU can be UNiQUE

Diary Of A Wimpy Kid Dog Days 2012 DVDRip x264 AAC-UNiQUE

General
Complete name                            : Diary Of A Wimpy Kid Dog Days 2012 DVDRip x264 AAC-UNiQUE.mp4
Format                                   : MPEG-4
Format profile                           : Base Media
Codec ID                                 : isom
File size                                : 1.42 GiB
Duration                                 : 1h 30mn
Overall bit rate mode                    : Variable
Overall bit rate                         : 2 251 Kbps
Encoded date                             : UTC 2012-11-17 16:05:54

Video
ID                                       : 1
Format                                   : AVC
Format/Info                              : Advanced Video Codec
Format profile                           : High@L4.1
Format settings, CABAC                   : Yes
Format settings, ReFrames                : 3 frames
Codec ID                                 : avc1
Codec ID/Info                            : Advanced Video Coding
Duration                                 : 1h 30mn
Bit rate mode                            : Variable
Bit rate                                 : 1 913 Kbps
Maximum bit rate                         : 40.0 Mbps
Width                                    : 720 pixels
Height                                   : 304 pixels
Display aspect ratio                     : 2.35:1
Frame rate mode                          : Constant
Frame rate                               : 25.000 fps
Color space                              : YUV
Chroma subsampling                       : 4:2:0
Bit depth                                : 8 bits
Scan type                                : Progressive
Bits/(Pixel*Frame)                       : 0.350
Stream size                              : 1.20 GiB (85%)
Writing library                          : x264 core 129 r2230 1cffe9f

Audio
ID                                       : 2
Format                                   : AAC
Format/Info                              : Advanced Audio Codec
Format profile                           : LC
Codec ID                                 : 40
Duration                                 : 1h 30mn
Bit rate mode                            : Variable
Bit rate                                 : 334 Kbps
Maximum bit rate                         : 390 Kbps
Channel(s)                               : 6 channels
Channel positions                        : Front: L C R, Side: L R, LFE
Sampling rate                            : 48.0 KHz
Compression mode                         : Lossy
Stream size                              : 215 MiB (15%)
Language                                 : English
Encoded date                             : UTC 2012-11-17 16:06:29

Source                            : DVDR-DVDMANiA - Thanks!    

Storyline
School is out and Greg is ready for the days of summer, when all his plans go wrong. What on earth is he going to do all summer?

iMDB: http://www.imdb.com/title/tt2023453/
 
http://www.shotpix.com/images/50555955690426285462.png 
http://www.shotpix.com/images/07916453220653667607.png 
http://www.shotpix.com/images/10814627095981108083.png 
http://www.shotpix.com/images/21104424800562132061.png